<svg width="42" height="48" viewBox="0 0 42 48" fill="none" xmlns="http://www.w3.org/2000/svg">
<path d="M25.5689 15.9501V7.69939C25.5689 5.12056 23.3726 2.92432 20.7938 2.92432C18.0879 2.92432 16.0187 5.16133 16.0187 7.69939V15.9665L9.33498 11.9681C9.3345 11.9679 9.33402 11.9676 9.33355 11.9673C7.08575 10.6197 4.12378 11.3606 2.77528 13.6081C1.42649 15.856 2.16723 18.819 4.4152 20.1678L4.41964 20.1704L11.4472 24.3623L4.4152 28.6186C4.41401 28.6193 4.41281 28.62 4.41161 28.6207C2.16644 29.9705 1.42721 32.9315 2.77528 35.1783C4.12389 37.4259 7.08622 38.1668 9.33409 36.8187C9.33439 36.8185 9.33468 36.8184 9.33498 36.8182L16.0187 32.8199V41.0002C16.0187 43.6658 18.1283 45.7753 20.7938 45.7753C23.3319 45.7753 25.5689 43.7061 25.5689 41.0002V32.8362L32.1614 36.8155L32.1659 36.8182C34.4139 38.167 37.3768 37.4262 38.7256 35.1783C40.0736 32.9315 39.3345 29.9706 37.0894 28.6208C37.0882 28.6201 37.0869 28.6193 37.0857 28.6186L30.0537 24.3623L37.0812 20.1704L37.0857 20.1678C39.3337 18.819 40.0744 15.856 38.7256 13.6081C37.3768 11.3601 34.4139 10.6194 32.1659 11.9681L32.1614 11.9709L25.5689 15.9501Z" fill="#FFB169" stroke="#141414" stroke-width="4"/>
</svg>
