<svg width="203" height="64" viewBox="0 0 203 64" fill="none" xmlns="http://www.w3.org/2000/svg">
<rect x="5.20947" y="6" width="194.791" height="57" rx="28.5" fill="white" stroke="#141414" stroke-width="2"/>
<rect x="1" y="1" width="195.843" height="57" rx="28.5" fill="#945BDD" stroke="#141414" stroke-width="2"/>
<path d="M40.2669 31.792C40.1069 32.912 39.7229 33.88 39.1149 34.696C38.5069 35.512 37.7309 36.144 36.7869 36.592C35.8589 37.024 34.8189 37.24 33.6669 37.24C32.5949 37.24 31.6029 37.056 30.6909 36.688C29.7789 36.304 28.9789 35.76 28.2909 35.056C27.6189 34.352 27.0909 33.504 26.7069 32.512C26.3229 31.52 26.1309 30.416 26.1309 29.2C26.1309 27.968 26.3229 26.864 26.7069 25.888C27.0909 24.896 27.6189 24.048 28.2909 23.344C28.9789 22.64 29.7789 22.104 30.6909 21.736C31.6029 21.352 32.5949 21.16 33.6669 21.16C34.8349 21.16 35.8829 21.384 36.8109 21.832C37.7549 22.264 38.5309 22.896 39.1389 23.728C39.7469 24.544 40.1309 25.52 40.2909 26.656H38.5149C38.2909 25.856 37.9389 25.184 37.4589 24.64C36.9949 24.096 36.4349 23.68 35.7789 23.392C35.1229 23.104 34.4189 22.96 33.6669 22.96C32.6909 22.96 31.7709 23.2 30.9069 23.68C30.0589 24.16 29.3709 24.864 28.8429 25.792C28.3149 26.72 28.0509 27.856 28.0509 29.2C28.0509 30.544 28.3149 31.68 28.8429 32.608C29.3709 33.536 30.0589 34.24 30.9069 34.72C31.7709 35.2 32.6909 35.44 33.6669 35.44C34.4189 35.44 35.1149 35.304 35.7549 35.032C36.4109 34.744 36.9709 34.328 37.4349 33.784C37.9149 33.24 38.2669 32.576 38.4909 31.792H40.2669ZM51.1253 37V29.464C51.1253 28.84 51.0293 28.328 50.8373 27.928C50.6453 27.512 50.3573 27.2 49.9733 26.992C49.5893 26.784 49.1093 26.68 48.5333 26.68C47.8773 26.68 47.2693 26.848 46.7093 27.184C46.1493 27.52 45.6853 27.984 45.3173 28.576C44.9653 29.152 44.7493 29.824 44.6693 30.592L44.6453 29.2C44.7253 28.528 44.8853 27.92 45.1253 27.376C45.3813 26.832 45.6933 26.368 46.0613 25.984C46.4453 25.584 46.8773 25.28 47.3573 25.072C47.8533 24.864 48.3733 24.76 48.9173 24.76C49.5573 24.76 50.1333 24.856 50.6453 25.048C51.1573 25.24 51.5893 25.52 51.9413 25.888C52.2933 26.256 52.5653 26.704 52.7573 27.232C52.9493 27.744 53.0453 28.328 53.0453 28.984V37H51.1253ZM42.8693 37V20.2H44.7893V37H42.8693ZM64.191 33.136H65.991C65.863 33.92 65.575 34.624 65.127 35.248C64.695 35.856 64.119 36.344 63.399 36.712C62.695 37.064 61.879 37.24 60.951 37.24C59.831 37.24 58.823 36.976 57.927 36.448C57.031 35.904 56.319 35.168 55.791 34.24C55.279 33.296 55.023 32.224 55.023 31.024C55.023 29.824 55.271 28.752 55.767 27.808C56.279 26.864 56.975 26.12 57.855 25.576C58.735 25.032 59.727 24.76 60.831 24.76C61.999 24.76 62.983 25.024 63.783 25.552C64.599 26.064 65.199 26.824 65.583 27.832C65.983 28.824 66.143 30.048 66.063 31.504H56.943C57.023 32.288 57.239 32.976 57.591 33.568C57.943 34.16 58.407 34.624 58.983 34.96C59.559 35.28 60.215 35.44 60.951 35.44C61.767 35.44 62.455 35.232 63.015 34.816C63.591 34.384 63.983 33.824 64.191 33.136ZM60.903 26.56C59.911 26.56 59.079 26.848 58.407 27.424C57.735 28 57.287 28.784 57.063 29.776H64.095C64.031 28.72 63.687 27.92 63.063 27.376C62.455 26.832 61.735 26.56 60.903 26.56ZM78.7148 32.488C78.6028 33.48 78.2828 34.336 77.7548 35.056C77.2428 35.76 76.5948 36.304 75.8108 36.688C75.0268 37.056 74.1788 37.24 73.2668 37.24C72.2428 37.24 71.2828 36.992 70.3868 36.496C69.4908 36 68.7628 35.288 68.2028 34.36C67.6588 33.416 67.3868 32.304 67.3868 31.024C67.3868 29.744 67.6588 28.64 68.2028 27.712C68.7628 26.768 69.4908 26.04 70.3868 25.528C71.2828 25.016 72.2428 24.76 73.2668 24.76C74.1788 24.76 75.0188 24.952 75.7868 25.336C76.5708 25.72 77.2188 26.264 77.7308 26.968C78.2588 27.672 78.5868 28.512 78.7148 29.488H76.9628C76.6908 28.576 76.2188 27.864 75.5468 27.352C74.8748 26.824 74.1148 26.56 73.2668 26.56C72.5788 26.56 71.9308 26.736 71.3228 27.088C70.7148 27.44 70.2268 27.952 69.8588 28.624C69.4908 29.28 69.3068 30.08 69.3068 31.024C69.3068 31.952 69.4908 32.752 69.8588 33.424C70.2268 34.08 70.7068 34.584 71.2988 34.936C71.9068 35.272 72.5628 35.44 73.2668 35.44C74.2428 35.44 75.0348 35.184 75.6428 34.672C76.2668 34.144 76.7148 33.416 76.9868 32.488H78.7148ZM80.9683 20.2H82.8883V37H80.9683V20.2ZM90.9043 25L84.9043 30.928L84.9523 29.68L91.3123 37H88.8643L82.9363 30.304L88.1683 25H90.9043ZM99.5573 20.2V22.528H97.0613V20.2H99.5573ZM97.3493 25H99.2693V37H97.3493V25ZM101.228 25H108.284V26.8H101.228V25ZM103.796 21.88H105.716V37H103.796V21.88ZM119.84 37.24C118.816 37.24 117.856 36.992 116.96 36.496C116.064 36 115.336 35.288 114.776 34.36C114.232 33.416 113.96 32.304 113.96 31.024C113.96 29.744 114.232 28.64 114.776 27.712C115.336 26.768 116.064 26.04 116.96 25.528C117.856 25.016 118.816 24.76 119.84 24.76C120.864 24.76 121.816 25.016 122.696 25.528C123.592 26.04 124.312 26.768 124.856 27.712C125.4 28.64 125.672 29.744 125.672 31.024C125.672 32.304 125.4 33.416 124.856 34.36C124.312 35.288 123.592 36 122.696 36.496C121.816 36.992 120.864 37.24 119.84 37.24ZM119.84 35.44C120.512 35.44 121.144 35.272 121.736 34.936C122.328 34.6 122.808 34.104 123.176 33.448C123.56 32.776 123.752 31.968 123.752 31.024C123.752 30.08 123.56 29.28 123.176 28.624C122.808 27.952 122.328 27.44 121.736 27.088C121.144 26.736 120.512 26.56 119.84 26.56C119.168 26.56 118.528 26.736 117.92 27.088C117.328 27.424 116.84 27.928 116.456 28.6C116.072 29.256 115.88 30.064 115.88 31.024C115.88 31.968 116.064 32.776 116.432 33.448C116.816 34.104 117.312 34.6 117.92 34.936C118.528 35.272 119.168 35.44 119.84 35.44ZM137.804 37H135.884V25H137.804V37ZM136.004 31.408L136.028 32.08C136.012 32.272 135.964 32.568 135.884 32.968C135.82 33.368 135.7 33.816 135.524 34.312C135.364 34.792 135.124 35.256 134.804 35.704C134.5 36.152 134.1 36.52 133.604 36.808C133.124 37.096 132.524 37.24 131.804 37.24C131.34 37.24 130.86 37.168 130.364 37.024C129.884 36.896 129.436 36.68 129.02 36.376C128.604 36.056 128.268 35.616 128.012 35.056C127.756 34.496 127.628 33.8 127.628 32.968V25H129.548V32.488C129.548 33.208 129.66 33.776 129.884 34.192C130.124 34.592 130.444 34.88 130.844 35.056C131.244 35.232 131.692 35.32 132.188 35.32C133.004 35.32 133.684 35.112 134.228 34.696C134.772 34.28 135.188 33.768 135.476 33.16C135.764 32.552 135.94 31.968 136.004 31.408ZM139.598 25H146.654V26.8H139.598V25ZM142.166 21.88H144.086V37H142.166V21.88ZM168.375 19.3281L176.625 27.2031C176.859 27.4375 177 27.7188 177 28.0469C177 28.3281 176.859 28.6094 176.625 28.8438L168.375 36.7188C167.953 37.1406 167.203 37.1406 166.781 36.6719C166.359 36.25 166.359 35.5 166.828 35.0781L173.062 29.1719H157.125C156.469 29.1719 156 28.6562 156 28.0469C156 27.3906 156.469 26.9219 157.125 26.9219H173.062L166.828 20.9688C166.359 20.5469 166.359 19.7969 166.781 19.375C167.203 18.9062 167.906 18.9062 168.375 19.3281Z" fill="white"/>
</svg>
