<svg width="285" height="64" viewBox="0 0 285 64" fill="none" xmlns="http://www.w3.org/2000/svg">
<rect x="5.98975" y="6" width="278.01" height="57" rx="28.5" fill="white" stroke="#141414" stroke-width="2"/>
<rect x="1" y="1" width="279.508" height="57" rx="28.5" fill="#945BDD" stroke="#141414" stroke-width="2"/>
<path d="M33.2496 31.744V21.4H35.1696V31.744C35.1696 32.528 35.0576 33.256 34.8336 33.928C34.6096 34.6 34.2736 35.184 33.8256 35.68C33.3936 36.176 32.8576 36.56 32.2176 36.832C31.5776 37.104 30.8416 37.24 30.0096 37.24C29.2896 37.24 28.6176 37.136 27.9936 36.928C27.3696 36.704 26.8256 36.392 26.3616 35.992C25.8976 35.576 25.5216 35.072 25.2336 34.48C24.9616 33.888 24.8096 33.224 24.7776 32.488H26.5296C26.6896 33.464 27.0816 34.2 27.7056 34.696C28.3296 35.192 29.0976 35.44 30.0096 35.44C30.7616 35.44 31.3696 35.28 31.8336 34.96C32.3136 34.64 32.6656 34.208 32.8896 33.664C33.1296 33.104 33.2496 32.464 33.2496 31.744ZM43.3802 37.24C42.3562 37.24 41.3962 36.992 40.5002 36.496C39.6042 36 38.8762 35.288 38.3162 34.36C37.7722 33.416 37.5002 32.304 37.5002 31.024C37.5002 29.744 37.7722 28.64 38.3162 27.712C38.8762 26.768 39.6042 26.04 40.5002 25.528C41.3962 25.016 42.3562 24.76 43.3802 24.76C44.4042 24.76 45.3562 25.016 46.2362 25.528C47.1322 26.04 47.8522 26.768 48.3962 27.712C48.9402 28.64 49.2122 29.744 49.2122 31.024C49.2122 32.304 48.9402 33.416 48.3962 34.36C47.8522 35.288 47.1322 36 46.2362 36.496C45.3562 36.992 44.4042 37.24 43.3802 37.24ZM43.3802 35.44C44.0522 35.44 44.6842 35.272 45.2762 34.936C45.8682 34.6 46.3482 34.104 46.7162 33.448C47.1002 32.776 47.2922 31.968 47.2922 31.024C47.2922 30.08 47.1002 29.28 46.7162 28.624C46.3482 27.952 45.8682 27.44 45.2762 27.088C44.6842 26.736 44.0522 26.56 43.3802 26.56C42.7082 26.56 42.0682 26.736 41.4602 27.088C40.8682 27.424 40.3802 27.928 39.9962 28.6C39.6122 29.256 39.4202 30.064 39.4202 31.024C39.4202 31.968 39.6042 32.776 39.9722 33.448C40.3562 34.104 40.8522 34.6 41.4602 34.936C42.0682 35.272 42.7082 35.44 43.3802 35.44ZM53.5448 20.2V22.528H51.0488V20.2H53.5448ZM51.3368 25H53.2568V37H51.3368V25ZM56.0559 25H57.9759V37H56.0559V25ZM62.1039 24.76C62.7439 24.76 63.3199 24.856 63.8319 25.048C64.3439 25.24 64.7759 25.52 65.1279 25.888C65.4799 26.256 65.7519 26.704 65.9439 27.232C66.1359 27.744 66.2319 28.328 66.2319 28.984V37H64.3119V29.464C64.3119 28.536 64.0959 27.84 63.6639 27.376C63.2319 26.912 62.5839 26.68 61.7199 26.68C61.0639 26.68 60.4559 26.848 59.8959 27.184C59.3359 27.52 58.8719 27.984 58.5039 28.576C58.1519 29.152 57.9359 29.824 57.8559 30.592L57.8319 29.2C57.9119 28.528 58.0719 27.92 58.3119 27.376C58.5679 26.832 58.8799 26.368 59.2479 25.984C59.6319 25.584 60.0639 25.28 60.5439 25.072C61.0399 24.864 61.5599 24.76 62.1039 24.76ZM72.5841 25H79.6401V26.8H72.5841V25ZM75.1521 21.88H77.0721V37H75.1521V21.88ZM89.9724 37V29.464C89.9724 28.84 89.8764 28.328 89.6844 27.928C89.4924 27.512 89.2044 27.2 88.8204 26.992C88.4364 26.784 87.9564 26.68 87.3804 26.68C86.7244 26.68 86.1164 26.848 85.5564 27.184C84.9964 27.52 84.5324 27.984 84.1644 28.576C83.8124 29.152 83.5964 29.824 83.5164 30.592L83.4924 29.2C83.5724 28.528 83.7324 27.92 83.9724 27.376C84.2284 26.832 84.5404 26.368 84.9084 25.984C85.2924 25.584 85.7244 25.28 86.2044 25.072C86.7004 24.864 87.2204 24.76 87.7644 24.76C88.4044 24.76 88.9804 24.856 89.4924 25.048C90.0044 25.24 90.4364 25.52 90.7884 25.888C91.1404 26.256 91.4124 26.704 91.6044 27.232C91.7964 27.744 91.8924 28.328 91.8924 28.984V37H89.9724ZM81.7164 37V20.2H83.6364V37H81.7164ZM103.038 33.136H104.838C104.71 33.92 104.422 34.624 103.974 35.248C103.542 35.856 102.966 36.344 102.246 36.712C101.542 37.064 100.726 37.24 99.7982 37.24C98.6782 37.24 97.6702 36.976 96.7742 36.448C95.8782 35.904 95.1662 35.168 94.6382 34.24C94.1262 33.296 93.8702 32.224 93.8702 31.024C93.8702 29.824 94.1182 28.752 94.6142 27.808C95.1262 26.864 95.8222 26.12 96.7022 25.576C97.5822 25.032 98.5742 24.76 99.6782 24.76C100.846 24.76 101.83 25.024 102.63 25.552C103.446 26.064 104.046 26.824 104.43 27.832C104.83 28.824 104.99 30.048 104.91 31.504H95.7902C95.8702 32.288 96.0862 32.976 96.4382 33.568C96.7902 34.16 97.2542 34.624 97.8302 34.96C98.4062 35.28 99.0622 35.44 99.7982 35.44C100.614 35.44 101.302 35.232 101.862 34.816C102.438 34.384 102.83 33.824 103.038 33.136ZM99.7502 26.56C98.7582 26.56 97.9262 26.848 97.2542 27.424C96.5822 28 96.1342 28.784 95.9102 29.776H102.942C102.878 28.72 102.534 27.92 101.91 27.376C101.302 26.832 100.582 26.56 99.7502 26.56ZM125.241 31.792C125.081 32.912 124.697 33.88 124.089 34.696C123.481 35.512 122.705 36.144 121.761 36.592C120.833 37.024 119.793 37.24 118.641 37.24C117.569 37.24 116.577 37.056 115.665 36.688C114.753 36.304 113.953 35.76 113.265 35.056C112.593 34.352 112.065 33.504 111.681 32.512C111.297 31.52 111.105 30.416 111.105 29.2C111.105 27.968 111.297 26.864 111.681 25.888C112.065 24.896 112.593 24.048 113.265 23.344C113.953 22.64 114.753 22.104 115.665 21.736C116.577 21.352 117.569 21.16 118.641 21.16C119.809 21.16 120.857 21.384 121.785 21.832C122.729 22.264 123.505 22.896 124.113 23.728C124.721 24.544 125.105 25.52 125.265 26.656H123.489C123.265 25.856 122.913 25.184 122.433 24.64C121.969 24.096 121.409 23.68 120.753 23.392C120.097 23.104 119.393 22.96 118.641 22.96C117.665 22.96 116.745 23.2 115.881 23.68C115.033 24.16 114.345 24.864 113.817 25.792C113.289 26.72 113.025 27.856 113.025 29.2C113.025 30.544 113.289 31.68 113.817 32.608C114.345 33.536 115.033 34.24 115.881 34.72C116.745 35.2 117.665 35.44 118.641 35.44C119.393 35.44 120.089 35.304 120.729 35.032C121.385 34.744 121.945 34.328 122.409 33.784C122.889 33.24 123.241 32.576 123.465 31.792H125.241ZM132.763 37.24C131.739 37.24 130.779 36.992 129.883 36.496C128.987 36 128.259 35.288 127.699 34.36C127.155 33.416 126.883 32.304 126.883 31.024C126.883 29.744 127.155 28.64 127.699 27.712C128.259 26.768 128.987 26.04 129.883 25.528C130.779 25.016 131.739 24.76 132.763 24.76C133.787 24.76 134.739 25.016 135.619 25.528C136.515 26.04 137.235 26.768 137.779 27.712C138.323 28.64 138.595 29.744 138.595 31.024C138.595 32.304 138.323 33.416 137.779 34.36C137.235 35.288 136.515 36 135.619 36.496C134.739 36.992 133.787 37.24 132.763 37.24ZM132.763 35.44C133.435 35.44 134.067 35.272 134.659 34.936C135.251 34.6 135.731 34.104 136.099 33.448C136.483 32.776 136.675 31.968 136.675 31.024C136.675 30.08 136.483 29.28 136.099 28.624C135.731 27.952 135.251 27.44 134.659 27.088C134.067 26.736 133.435 26.56 132.763 26.56C132.091 26.56 131.451 26.736 130.843 27.088C130.251 27.424 129.763 27.928 129.379 28.6C128.995 29.256 128.803 30.064 128.803 31.024C128.803 31.968 128.987 32.776 129.355 33.448C129.739 34.104 130.235 34.6 130.843 34.936C131.451 35.272 132.091 35.44 132.763 35.44ZM140.552 25H142.472V37H140.552V25ZM146.6 24.76C147.24 24.76 147.816 24.856 148.328 25.048C148.84 25.24 149.272 25.52 149.624 25.888C149.976 26.256 150.248 26.704 150.44 27.232C150.632 27.744 150.728 28.328 150.728 28.984V37H148.808V29.464C148.808 28.536 148.592 27.84 148.16 27.376C147.728 26.912 147.08 26.68 146.216 26.68C145.56 26.68 144.952 26.848 144.392 27.184C143.832 27.52 143.368 27.984 143 28.576C142.648 29.152 142.432 29.824 142.352 30.592L142.328 29.2C142.408 28.528 142.568 27.92 142.808 27.376C143.064 26.832 143.376 26.368 143.744 25.984C144.128 25.584 144.56 25.28 145.04 25.072C145.536 24.864 146.056 24.76 146.6 24.76ZM154.664 24.76C155.304 24.76 155.88 24.856 156.392 25.048C156.904 25.24 157.336 25.52 157.688 25.888C158.04 26.256 158.312 26.704 158.504 27.232C158.696 27.744 158.792 28.328 158.792 28.984V37H156.872V29.464C156.872 28.536 156.656 27.84 156.224 27.376C155.792 26.912 155.144 26.68 154.28 26.68C153.624 26.68 153.016 26.848 152.456 27.184C151.896 27.52 151.432 27.984 151.064 28.576C150.712 29.152 150.496 29.824 150.416 30.592L150.392 29.2C150.472 28.528 150.632 27.92 150.872 27.376C151.128 26.832 151.44 26.368 151.808 25.984C152.192 25.584 152.624 25.28 153.104 25.072C153.6 24.864 154.12 24.76 154.664 24.76ZM161.423 25H163.343V37H161.423V25ZM167.471 24.76C168.111 24.76 168.687 24.856 169.199 25.048C169.711 25.24 170.143 25.52 170.495 25.888C170.847 26.256 171.119 26.704 171.311 27.232C171.503 27.744 171.599 28.328 171.599 28.984V37H169.679V29.464C169.679 28.536 169.463 27.84 169.031 27.376C168.599 26.912 167.951 26.68 167.087 26.68C166.431 26.68 165.823 26.848 165.263 27.184C164.703 27.52 164.239 27.984 163.871 28.576C163.519 29.152 163.303 29.824 163.223 30.592L163.199 29.2C163.279 28.528 163.439 27.92 163.679 27.376C163.935 26.832 164.247 26.368 164.615 25.984C164.999 25.584 165.431 25.28 165.911 25.072C166.407 24.864 166.927 24.76 167.471 24.76ZM175.535 24.76C176.175 24.76 176.751 24.856 177.263 25.048C177.775 25.24 178.207 25.52 178.559 25.888C178.911 26.256 179.183 26.704 179.375 27.232C179.567 27.744 179.663 28.328 179.663 28.984V37H177.743V29.464C177.743 28.536 177.527 27.84 177.095 27.376C176.663 26.912 176.015 26.68 175.151 26.68C174.495 26.68 173.887 26.848 173.327 27.184C172.767 27.52 172.303 27.984 171.935 28.576C171.583 29.152 171.367 29.824 171.287 30.592L171.263 29.2C171.343 28.528 171.503 27.92 171.743 27.376C171.999 26.832 172.311 26.368 172.679 25.984C173.063 25.584 173.495 25.28 173.975 25.072C174.471 24.864 174.991 24.76 175.535 24.76ZM192.471 37H190.551V25H192.471V37ZM190.671 31.408L190.695 32.08C190.679 32.272 190.631 32.568 190.551 32.968C190.487 33.368 190.367 33.816 190.191 34.312C190.031 34.792 189.791 35.256 189.471 35.704C189.167 36.152 188.767 36.52 188.271 36.808C187.791 37.096 187.191 37.24 186.471 37.24C186.007 37.24 185.527 37.168 185.031 37.024C184.551 36.896 184.103 36.68 183.687 36.376C183.271 36.056 182.935 35.616 182.679 35.056C182.423 34.496 182.295 33.8 182.295 32.968V25H184.215V32.488C184.215 33.208 184.327 33.776 184.551 34.192C184.791 34.592 185.111 34.88 185.511 35.056C185.911 35.232 186.359 35.32 186.855 35.32C187.671 35.32 188.351 35.112 188.895 34.696C189.439 34.28 189.855 33.768 190.143 33.16C190.431 32.552 190.607 31.968 190.671 31.408ZM195.104 25H197.024V37H195.104V25ZM201.152 24.76C201.792 24.76 202.368 24.856 202.88 25.048C203.392 25.24 203.824 25.52 204.176 25.888C204.528 26.256 204.8 26.704 204.992 27.232C205.184 27.744 205.28 28.328 205.28 28.984V37H203.36V29.464C203.36 28.536 203.144 27.84 202.712 27.376C202.28 26.912 201.632 26.68 200.768 26.68C200.112 26.68 199.504 26.848 198.944 27.184C198.384 27.52 197.92 27.984 197.552 28.576C197.2 29.152 196.984 29.824 196.904 30.592L196.88 29.2C196.96 28.528 197.12 27.92 197.36 27.376C197.616 26.832 197.928 26.368 198.296 25.984C198.68 25.584 199.112 25.28 199.592 25.072C200.088 24.864 200.608 24.76 201.152 24.76ZM210.289 20.2V22.528H207.793V20.2H210.289ZM208.081 25H210.001V37H208.081V25ZM211.96 25H219.016V26.8H211.96V25ZM214.528 21.88H216.448V37H214.528V21.88ZM219.725 25H221.789L226.085 36.52L224.405 37L219.725 25ZM230.885 25L224.189 41.8H222.101L225.005 35.32L228.845 25H230.885ZM252.375 19.3281L260.625 27.2031C260.859 27.4375 261 27.7188 261 28.0469C261 28.3281 260.859 28.6094 260.625 28.8438L252.375 36.7188C251.953 37.1406 251.203 37.1406 250.781 36.6719C250.359 36.25 250.359 35.5 250.828 35.0781L257.062 29.1719H241.125C240.469 29.1719 240 28.6562 240 28.0469C240 27.3906 240.469 26.9219 241.125 26.9219H257.062L250.828 20.9688C250.359 20.5469 250.359 19.7969 250.781 19.375C251.203 18.9062 251.906 18.9062 252.375 19.3281Z" fill="white"/>
</svg>
