<svg width="157" height="92" viewBox="0 0 157 92" fill="none" xmlns="http://www.w3.org/2000/svg">
<rect x="5" y="4" width="152" height="88" rx="3" fill="#FE6B6B"/>
<rect x="0.5" y="0.5" width="151" height="86" rx="2.5" fill="white" stroke="#141414"/>
<path d="M26.5456 19.58C26.5456 15.84 22.8056 15.64 22.8056 15.64C22.8056 15.64 26.1456 15.28 26.1456 12.26C26.1456 9.8 23.9656 8.46 19.1656 8.46H12.5656V24H19.5656C24.3656 24 26.5456 22.52 26.5456 19.58ZM15.1656 15.18V10.16H19.1656C21.5656 10.16 23.4056 10.66 23.4056 12.66C23.4056 14.66 21.5656 15.18 19.1656 15.18H15.1656ZM15.1656 16.88H19.5656C21.9656 16.88 23.8056 17.38 23.8056 19.58C23.8056 21.78 21.9656 22.3 19.5656 22.3H15.1656V16.88ZM29.5383 24H41.8383V22.3H32.1383V17.06H40.6983V15.36H32.1383V10.16H41.2583V8.46H29.5383V24ZM42.6406 10.16H49.2406V24H51.7806V10.16H58.3806V8.46H42.6406V10.16ZM58.3828 10.16H64.9828V24H67.5228V10.16H74.1228V8.46H58.3828V10.16ZM75.925 24H88.225V22.3H78.525V17.06H87.085V15.36H78.525V10.16H87.645V8.46H75.925V24ZM90.8273 8.46V24H93.4273V16.88H96.0273C99.3273 16.88 100.367 17.52 100.787 19.28C101.627 22.82 101.807 23.6 102.107 24H104.807C104.507 23.6 104.327 22.92 103.267 18.84C102.807 17.04 101.167 16.36 99.7073 16.18C102.407 16.18 104.407 15.04 104.407 12.66C104.407 9.8 102.227 8.46 97.4273 8.46H90.8273ZM93.4273 15.18V10.16H97.4273C99.8273 10.16 101.667 10.66 101.667 12.66C101.667 14.66 99.8273 15.18 97.4273 15.18H93.4273Z" fill="#141414"/>
<path d="M17.0967 39.48C15.3767 39.1 14.3567 38.58 14.3567 37.4C14.3567 36.08 15.6967 35.16 17.7967 35.16C22.4767 35.16 22.1967 38.54 22.1967 38.54L24.8767 37.82C24.8767 37.82 24.7167 33.18 17.9167 33.18C13.5567 33.18 11.6567 35.3 11.6567 37.64C11.6567 39.5 12.9567 40.98 15.6167 41.6L19.3967 42.48C21.6767 43.02 22.9167 43.46 22.9167 44.96C22.9167 46.24 21.4167 47.3 18.8967 47.3C13.1367 47.3 13.6167 42.96 13.6167 42.96L10.9367 43.74C11.0367 45.84 12.8967 49.28 18.9567 49.28C22.7167 49.28 25.6167 47.76 25.6167 44.84C25.6167 42.82 24.4367 41.12 21.0567 40.36L17.0967 39.48ZM26.4258 35.16H33.0258V49H35.5658V35.16H42.1658V33.46H26.4258V35.16ZM43.968 33.46V49H46.568V41.88H49.168C52.468 41.88 53.508 42.52 53.928 44.28C54.768 47.82 54.948 48.6 55.248 49H57.948C57.648 48.6 57.468 47.92 56.408 43.84C55.948 42.04 54.308 41.36 52.848 41.18C55.548 41.18 57.548 40.04 57.548 37.66C57.548 34.8 55.368 33.46 50.568 33.46H43.968ZM46.568 40.18V35.16H50.568C52.968 35.16 54.808 35.66 54.808 37.66C54.808 39.66 52.968 40.18 50.568 40.18H46.568ZM73.0606 33.46V42.58C73.0606 46.62 71.2406 47.3 68.3006 47.3C65.3606 47.3 63.5406 46.62 63.5406 42.58V33.46H60.9406V42.58C60.9406 47.06 63.4206 49.28 68.3006 49.28C73.1806 49.28 75.6606 47.06 75.6606 42.58V33.46H73.0606ZM95.4609 39.02C95.4609 39.02 94.5409 33.18 87.3209 33.18C81.8009 33.18 78.6609 36.56 78.6609 41.24C78.6609 45.9 81.8009 49.28 86.7209 49.28C91.5209 49.28 92.6009 46 92.6009 46V49H95.2009V41.12H86.7409V42.82H92.6009C92.6009 42.82 92.3009 47.3 87.1209 47.3C83.5609 47.3 81.4009 44.66 81.4009 41.24C81.4009 37.8 83.5609 35.16 87.3209 35.16C92.3209 35.16 92.7809 39.82 92.7809 39.82L95.4609 39.02ZM115.129 39.02C115.129 39.02 114.209 33.18 106.989 33.18C101.469 33.18 98.3289 36.56 98.3289 41.24C98.3289 45.9 101.469 49.28 106.389 49.28C111.189 49.28 112.269 46 112.269 46V49H114.869V41.12H106.409V42.82H112.269C112.269 42.82 111.969 47.3 106.789 47.3C103.229 47.3 101.069 44.66 101.069 41.24C101.069 37.8 103.229 35.16 106.989 35.16C111.989 35.16 112.449 39.82 112.449 39.82L115.129 39.02ZM118.597 49H130.097V47.3H121.197V33.46H118.597V49ZM131.898 49H144.198V47.3H134.498V42.06H143.058V40.36H134.498V35.16H143.618V33.46H131.898V49Z" fill="#141414"/>
<path d="M10.4456 64.5148H13.3896V70.5868C13.3896 73.8758 15.2756 75.3478 18.3576 75.3478C21.6466 75.3478 23.1646 73.4618 23.1646 73.4618L22.4286 70.9778C22.4286 70.9778 21.4166 72.8178 19.3926 72.8178C17.7596 72.8178 17.1386 71.8748 17.1386 70.3108V64.5148H23.0036V62.2838H17.1386V57.4768L13.4816 59.7768V62.2838H10.4456V64.5148ZM24.5502 68.6548C24.5502 72.4038 27.4942 75.3478 32.4392 75.3478C37.4302 75.3478 40.3742 72.4038 40.3742 68.6548C40.3742 64.9288 37.4302 61.9848 32.4392 61.9848C27.4942 61.9848 24.5502 64.9288 24.5502 68.6548ZM28.5292 68.6548C28.5292 66.5618 29.4722 64.5148 32.4392 64.5148C35.3832 64.5148 36.3952 66.5618 36.3952 68.6548C36.3952 70.7478 35.3832 72.8178 32.4392 72.8178C29.4722 72.8178 28.5292 70.7478 28.5292 68.6548ZM49.9104 71.1388C54.3954 71.1388 57.0864 69.1608 57.0864 66.5848C57.0864 65.7568 56.8104 64.9978 56.2814 64.3308C55.8214 63.4798 55.7984 62.9048 57.1094 62.9048C57.3854 62.9048 58.1904 62.9508 59.0874 63.0888L58.2134 60.2598C57.5924 60.2138 56.8794 60.1678 56.5574 60.1678C55.3154 60.1678 54.5564 60.8348 54.5564 61.9848C54.5564 62.3528 54.7864 62.7898 55.1084 63.2728C53.8664 62.4678 52.0724 61.9848 49.8644 61.9848C45.3104 61.9848 42.6424 63.9858 42.6424 66.5848C42.6424 68.3098 43.8154 69.7358 45.9314 70.5178C45.0804 70.6328 42.7114 71.0468 42.7114 72.6338C42.7114 74.5198 45.6094 74.9108 45.9084 74.9338C45.5404 74.9798 41.9754 75.3478 41.9754 77.6018C41.9754 78.8898 43.1944 80.4998 47.2194 80.4998H52.3024C56.2584 80.4998 58.6964 79.0508 58.6964 76.6588C58.6964 74.8418 57.6614 72.8178 53.4524 72.8178H48.7374C47.1964 72.8178 46.4144 72.5648 46.4144 71.8288C46.4144 71.0468 47.1964 70.9548 47.6794 70.9778C48.3464 71.0928 49.1054 71.1388 49.9104 71.1388ZM46.4834 66.5848C46.4834 65.2278 47.3574 64.2158 49.8644 64.2158C52.3714 64.2158 53.1994 65.2278 53.1994 66.5848C53.1994 67.8958 52.3714 68.9078 49.8644 68.9078C47.3574 68.9078 46.4834 67.8958 46.4834 66.5848ZM52.6934 75.3248C54.2114 75.4168 54.6944 75.9918 54.6944 76.9118C54.6944 78.4298 52.9694 78.6828 50.2094 78.6828C47.0124 78.6828 45.9774 78.1998 45.9774 76.9348C45.9774 75.0488 48.1164 75.0488 48.2084 75.0488L52.6934 75.3248ZM63.8349 68.8848L75.0129 69.1148C75.3579 67.2978 74.9669 61.9848 67.7679 61.9848C63.0069 61.9848 60.0169 64.8598 60.0169 68.6548C60.0169 72.9788 63.6509 75.3478 67.7679 75.3478C74.3919 75.3478 75.3579 70.8168 75.3579 70.8168L71.6779 69.8738C71.6779 69.8738 71.6549 72.8178 68.1589 72.8178C65.0539 72.8178 63.8579 70.8628 63.8349 68.8848ZM71.0799 66.8608L64.0649 67.0908C64.0649 67.0908 64.5249 64.3998 67.6989 64.3998C70.7579 64.3998 71.0799 66.8608 71.0799 66.8608ZM76.2804 64.5148H79.2244V70.5868C79.2244 73.8758 81.1104 75.3478 84.1924 75.3478C87.4814 75.3478 88.9994 73.4618 88.9994 73.4618L88.2634 70.9778C88.2634 70.9778 87.2514 72.8178 85.2274 72.8178C83.5944 72.8178 82.9734 71.8748 82.9734 70.3108V64.5148H88.8384V62.2838H82.9734V57.4768L79.3164 59.7768V62.2838H76.2804V64.5148ZM94.87 56.8558C94.87 56.8558 93.168 57.1778 91.075 57.1778V75.0488H94.87V67.3208C94.87 67.3208 95.537 64.5148 98.826 64.5148C100.62 64.5148 101.908 65.3428 101.908 67.0448V75.0488H105.68V67.2288C105.68 63.9858 103.817 61.9848 99.861 61.9848C95.56 61.9848 94.916 65.1128 94.87 65.4118V56.8558ZM112.498 68.8848L123.676 69.1148C124.021 67.2978 123.63 61.9848 116.431 61.9848C111.67 61.9848 108.68 64.8598 108.68 68.6548C108.68 72.9788 112.314 75.3478 116.431 75.3478C123.055 75.3478 124.021 70.8168 124.021 70.8168L120.341 69.8738C120.341 69.8738 120.318 72.8178 116.822 72.8178C113.717 72.8178 112.521 70.8628 112.498 68.8848ZM119.743 66.8608L112.728 67.0908C112.728 67.0908 113.188 64.3998 116.362 64.3998C119.421 64.3998 119.743 66.8608 119.743 66.8608ZM130.808 67.2978C130.808 67.2978 131.176 64.5148 132.786 64.5148C133.223 64.5148 133.798 64.7218 133.798 65.6648C133.798 67.4128 133.407 68.7008 133.407 68.7008L137.087 67.7578C137.087 67.7578 137.386 66.9068 137.386 65.3198C137.386 63.5258 136.604 61.9848 133.959 61.9848C130.256 61.9848 130.302 65.8948 130.302 65.8948L129.221 62.2838H127.013V75.0488H130.808V67.2978Z" fill="#141414"/>
</svg>
