<svg width="48" height="49" viewBox="0 0 48 49" fill="none" xmlns="http://www.w3.org/2000/svg">
<path d="M20.9879 8.88119L20.9787 8.86089L20.9687 8.84093C20.5398 7.98311 19.6452 7.3227 18.6098 7.3227C17.6299 7.3227 16.6614 7.93831 16.2937 8.92567L12.1284 17.8849L3.11786 21.995L3.09755 22.0042L3.0776 22.0142C2.09913 22.5035 1.64209 23.4726 1.64209 24.3731C1.64209 25.2736 2.09913 26.2428 3.0776 26.732L3.09755 26.742L3.11786 26.7513L12.1284 30.8613L16.2936 39.8206C16.6614 40.8079 17.6299 41.4235 18.6098 41.4235C19.6452 41.4235 20.5398 40.7631 20.9687 39.9053L20.9787 39.8853L20.9879 39.865L25.098 30.8545L34.0572 26.6893C35.0446 26.3215 35.6602 25.353 35.6602 24.3731C35.6602 23.3377 34.9998 22.4431 34.142 22.0142L34.122 22.0042L34.1017 21.995L25.0959 17.887L20.9879 8.88119ZM33.6849 7.60854L29.5443 9.20667C29.0359 9.36394 28.6905 9.71819 28.4894 10.0198C28.2724 10.3453 28.114 10.7687 28.114 11.2199C28.114 11.6652 28.2442 12.101 28.4694 12.4615C28.6774 12.7942 29.0332 13.1617 29.5562 13.3195L33.6849 14.8406L35.206 18.9693C35.3638 19.4922 35.7313 19.848 36.064 20.056C36.4245 20.2813 36.8602 20.4115 37.3056 20.4115C37.7568 20.4115 38.1802 20.253 38.5056 20.0361C38.8073 19.835 39.1615 19.4895 39.3188 18.9811L40.9169 14.8405L44.9497 13.3282C46.0315 13.0472 46.4971 12.0099 46.4971 11.2199C46.4971 10.4458 45.9828 9.47092 44.962 9.19762L40.917 7.6085L39.3278 3.56345C39.0545 2.54267 38.0797 2.02832 37.3056 2.02832C36.5156 2.02832 35.4782 2.49396 35.1972 3.5758L33.6849 7.60854ZM35.1972 30.0477L33.6849 34.0804L29.5443 35.6786C29.0359 35.8358 28.6905 36.1901 28.4894 36.4917C28.2724 36.8172 28.114 37.2406 28.114 37.6918C28.114 38.1372 28.2442 38.5729 28.4694 38.9334C28.6774 39.2661 29.0332 39.6336 29.5562 39.7914L33.6849 41.3125L35.206 45.4412C35.3638 45.9641 35.7313 46.32 36.064 46.5279C36.4245 46.7532 36.8602 46.8834 37.3056 46.8834C37.7568 46.8834 38.1802 46.7249 38.5056 46.508C38.8073 46.3069 39.1615 45.9614 39.3188 45.453L40.9169 41.3124L44.9497 39.8001C46.0315 39.5191 46.4971 38.4818 46.4971 37.6918C46.4971 36.9177 45.9828 35.9428 44.962 35.6695L40.917 34.0804L39.3278 30.0354C39.0545 29.0146 38.0797 28.5002 37.3056 28.5002C36.5156 28.5002 35.4782 28.9659 35.1972 30.0477Z" fill="#FE6B6B" stroke="#141414" stroke-width="2.5"/>
</svg>
