<svg width="64" height="64" viewBox="0 0 64 64" fill="none" xmlns="http://www.w3.org/2000/svg">
<path d="M2.35749 32.5591L2.33325 32.553L2.30886 32.5476C2.22096 32.5281 2.16259 32.4876 2.11562 32.425C2.06499 32.3575 2 32.223 2 32C2 31.7606 2.14859 31.613 2.30886 31.5774L2.33844 31.5708L2.3678 31.5633L24.4928 25.9383L25.6506 25.644L25.9403 24.4851L31.4403 2.48507L31.4467 2.45955L31.4524 2.43386C31.5077 2.18492 31.7268 2 32 2C32.036 2 32.1177 2.01457 32.2187 2.10061C32.3217 2.18834 32.3954 2.31112 32.4226 2.43386L32.4295 2.46476L32.4373 2.49543L38.0623 24.4954L38.356 25.644L39.5046 25.9377L61.5046 31.5627L61.5352 31.5705L61.5661 31.5774C61.6889 31.6046 61.8117 31.6783 61.8994 31.7813C61.9854 31.8823 62 31.964 62 32C62 32.2732 61.8151 32.4923 61.5661 32.5476L61.5405 32.5533L61.5149 32.5597L39.5149 38.0597L38.356 38.3494L38.0617 39.5072L32.4367 61.6322L32.4292 61.6616L32.4226 61.6911C32.387 61.8514 32.2394 62 32 62C31.777 62 31.6425 61.935 31.575 61.8844C31.5124 61.8374 31.4719 61.779 31.4524 61.6911L31.447 61.6668L31.4409 61.6425L25.9409 39.5175L25.6506 38.3494L24.4825 38.0591L2.35749 32.5591ZM10.2892 11.7108L10.252 11.6736L10.2129 11.6384C10.0155 11.4607 9.9375 11.2538 9.9375 11.0469C9.9375 10.8337 10.0234 10.555 10.2892 10.2892C10.5875 9.99091 11.2242 9.88749 11.7495 10.3289L17.571 16.2743L17.5783 16.2818L17.5858 16.2892C17.8516 16.555 17.9375 16.8337 17.9375 17.0469C17.9375 17.2538 17.8595 17.4607 17.6621 17.6384L17.5838 17.7088L17.5134 17.7871C17.3317 17.989 17.1228 18.0625 16.9375 18.0625C16.7522 18.0625 16.5433 17.989 16.3616 17.7871L16.3264 17.748L16.2892 17.7108L10.2892 11.7108ZM46.3616 17.7871L46.2912 17.7088L46.2129 17.6384C46.0155 17.4607 45.9375 17.2538 45.9375 17.0469C45.9375 16.8337 46.0234 16.555 46.2892 16.2892L52.2892 10.2892C52.5793 9.99908 53.1896 9.89329 53.7061 10.2939C54.1067 10.8104 54.0009 11.4206 53.7108 11.7108L47.7108 17.7108C47.445 17.9766 47.1663 18.0625 46.9531 18.0625C46.7462 18.0625 46.5393 17.9845 46.3616 17.7871ZM46.2892 47.7108L46.252 47.6736L46.2129 47.6384C46.0155 47.4607 45.9375 47.2538 45.9375 47.0469C45.9375 46.8337 46.0234 46.555 46.2892 46.2892C46.5887 45.9897 47.2293 45.8867 47.7558 46.3342L53.6658 52.2442C54.1133 52.7707 54.0103 53.4113 53.7108 53.7108C53.445 53.9766 53.1663 54.0625 52.9531 54.0625C52.7462 54.0625 52.5393 53.9845 52.3616 53.7871L52.3264 53.748L52.2892 53.7108L46.2892 47.7108ZM10.3616 53.7871L10.2912 53.7088L10.2129 53.6384C10.0155 53.4607 9.9375 53.2538 9.9375 53.0469C9.9375 52.8353 10.0221 52.5591 10.2834 52.2951L16.2743 46.429L16.3194 46.3849L16.3616 46.3379C16.5433 46.136 16.7522 46.0625 16.9375 46.0625C17.1228 46.0625 17.3317 46.136 17.5134 46.3379L17.5838 46.4162L17.6621 46.4866C17.864 46.6683 17.9375 46.8772 17.9375 47.0625C17.9375 47.2478 17.864 47.4567 17.6621 47.6384L17.623 47.6736L17.5858 47.7108L11.5858 53.7108L11.5486 53.748L11.5134 53.7871C11.3317 53.989 11.1228 54.0625 10.9375 54.0625C10.7522 54.0625 10.5433 53.989 10.3616 53.7871Z" fill="#FFB169" stroke="#141414" stroke-width="4"/>
</svg>
