<svg width="261" height="115" viewBox="0 0 261 115" fill="none" xmlns="http://www.w3.org/2000/svg">
<rect x="14.4761" y="6.45215" width="247" height="79" rx="39.5" transform="rotate(6.91061 14.4761 6.45215)" fill="black"/>
<rect x="10.9863" width="247" height="79" rx="39.5" transform="rotate(6.91061 10.9863 0)" fill="#FE6B6B"/>
<rect x="17.6496" y="7.35536" width="232" height="67" rx="33.5" transform="rotate(6.91061 17.6496 7.35536)" stroke="#141414"/>
<path d="M28.8813 37.2235L33.8053 37.8203L32.4 49.4155C31.731 54.9351 34.3266 57.7881 39.052 58.3608C43.9362 58.9528 46.4259 56.0311 46.4259 56.0311L45.9012 52.3815C45.9012 52.3815 44.3249 55.4138 40.4731 54.947C37.9317 54.639 36.8089 52.9315 37.2277 49.4768L38.5704 38.3979L47.6242 39.4952L47.9851 36.517L38.9314 35.4196L39.9228 27.2395L34.9712 29.8628L34.3648 34.8662L29.2423 34.2453L28.8813 37.2235ZM49.8377 47.9026C49.0484 54.4149 53.0784 60.0608 60.9409 61.0138C68.8033 61.9667 74.0654 57.447 74.8547 50.9347C75.6392 44.462 71.6092 38.8161 63.7467 37.8632C55.8843 36.9103 50.6222 41.43 49.8377 47.9026ZM54.9205 48.5186C55.4981 43.7535 58.7121 40.839 63.3184 41.3973C67.8453 41.946 70.3494 45.5535 69.7719 50.3186C69.1943 55.0838 65.8961 58.0283 61.3692 57.4796C56.7629 56.9214 54.343 53.2838 54.9205 48.5186ZM90.5544 56.7056C98.3771 57.6537 102.24 54.3747 102.721 50.4037C102.923 48.7359 102.52 47.0753 101.408 45.6109C100.305 43.7446 102.124 42.0311 106.282 43.3005L105.757 39.6509C100.244 38.2575 98.5213 40.5065 100.013 44.1525C98.3264 42.7796 95.7922 41.7471 92.2978 41.3236C84.3559 40.3611 80.4885 43.6798 80.0072 47.6508C79.6607 50.5099 81.1155 53.4664 84.9722 55.2232C83.0866 55.1558 78.7559 55.3159 78.3949 58.2941C77.9377 62.0665 84.0337 62.9665 84.0337 62.9665C80.2216 62.5045 76.9221 63.7969 76.5756 66.6559C76.3253 68.7208 77.4781 71.8422 84.8244 72.7326L89.9866 73.3583C98.2461 74.3593 101.95 72.3907 102.426 68.4594C102.787 65.4812 101.158 62.3021 94.2883 61.4695L86.7435 60.555C84.4801 60.2807 83.4199 59.3867 83.5932 57.9571C83.7953 56.2893 85.5305 55.9355 86.7808 55.9259C87.8686 56.2592 89.1248 56.5323 90.5544 56.7056ZM85.09 48.2668C85.3932 45.7651 87.3305 43.7435 91.9368 44.3018C96.5431 44.8601 97.9017 47.2812 97.5985 49.7829C97.3049 52.2051 95.4025 54.2712 90.7962 53.713C86.1899 53.1547 84.7964 50.6891 85.09 48.2668ZM93.5074 64.9206C96.5361 65.5294 97.4434 66.687 97.2413 68.3548C96.9381 70.8565 94.5291 71.451 89.2874 70.8157C83.331 70.0937 81.4911 68.9843 81.7943 66.4826C82.2131 63.0279 86.8193 63.5862 86.8193 63.5862L93.5074 64.9206ZM130.539 61.4309L125.788 59.4045C125.788 59.4045 125.085 65.2021 118.732 64.4321C114.324 63.8978 111.41 60.6838 111.942 55.6311L130.319 58.2614C130.319 58.2614 132.903 46.245 120.514 44.7434C112.731 43.8001 107.682 48.2248 106.883 54.8165C105.978 62.2819 111.275 67.1143 117.708 67.894C128.191 69.1646 130.539 61.4309 130.539 61.4309ZM125.641 54.6322L112.434 53.2329C113.532 49.8203 116.115 47.7963 119.808 48.2439C126.042 48.9995 125.641 54.6322 125.641 54.6322ZM134.324 50.0033L139.248 50.6001L137.842 62.1952C137.173 67.7148 139.769 70.5678 144.494 71.1406C149.379 71.7325 151.868 68.8109 151.868 68.8109L151.344 65.1612C151.344 65.1612 149.767 68.1936 145.915 67.7268C143.374 67.4187 142.251 65.7112 142.67 62.2565L144.013 51.1776L153.067 52.2749L153.428 49.2967L144.374 48.1994L145.365 40.0193L140.414 42.6425L139.807 47.6459L134.685 47.0251L134.324 50.0033ZM163.638 41.5893C163.638 41.5893 161.639 41.7902 158.82 41.4485L155.133 71.8659L159.899 72.4435L161.487 59.3394C161.65 57.9893 163.003 53.4792 168.999 54.206C172.97 54.6872 175.017 56.7485 174.569 60.4415L172.923 74.0221L177.688 74.5996L179.344 60.9396C180.018 55.3803 177.727 51.6777 171.175 50.8836C163.63 49.9691 161.896 55.9641 161.896 55.9641L163.638 41.5893ZM207.846 70.8007L203.096 68.7743C203.096 68.7743 202.393 74.5719 196.04 73.8019C191.632 73.2676 188.717 70.0536 189.249 65.0009L207.626 67.6311C207.626 67.6311 210.211 55.6148 197.821 54.1132C190.038 53.1699 184.989 57.5945 184.19 64.1863C183.286 71.6517 188.583 76.4841 195.016 77.2638C205.499 78.5344 207.846 70.8007 207.846 70.8007ZM202.949 64.002L189.741 62.6027C190.84 59.1901 193.422 57.1661 197.115 57.6137C203.35 58.3693 202.949 64.002 202.949 64.002ZM218.45 66.2836C218.604 65.0129 220.487 60.4463 223.544 60.8169C224.855 60.9757 225.37 62.0455 225.139 63.9515C224.831 66.4929 223.689 68.9332 223.689 68.9332L228.786 68.1005C228.786 68.1005 229.806 66.3304 230.148 63.511C230.499 60.6123 229.651 57.971 225.998 57.5282C219.922 56.7919 218.306 63.8084 218.306 63.8084L217.075 57.0109L214.772 56.7317L212.101 78.7705L216.866 79.348L218.45 66.2836Z" fill="#141414"/>
</svg>
